# xmcd
#
# Track frame offsets: 
#        150
#        13320
#        25630
#        40255
#        59955
#        79110
#        99335
#        113695
#        126427
#        141252
#
# Disc length: 2116 seconds
#
# Revision: 2
# Processed by: cddbd v1.5.1PL2 Copyright (c) Steve Scherf et al.
# Submitted via: ExactAudioCopy v0.95b3
#
DISCID=8808420a
DTITLE=New Grass Revival - New Grass Revival
DYEAR=1986
DGENRE=Bluegrass
TTITLE0=What You Do to Me
TTITLE1=Love Someone like Me
TTITLE2=Lonely Rider
TTITLE3=Sweet Release
TTITLE4=How Many Hearts
TTITLE5=In the Middle of the Night
TTITLE6=Saw You Runnin'
TTITLE7=Ain't That Peculiar
TTITLE8=Seven by Seven
TTITLE9=Revival
EXTD=Sam Bush: mandolin, fiddle, vocals\nJohn Cowan: bass guitar, voca
EXTD=ls\nPat Flynn: guitar, vocals\nBéla Fleck: banjo, guitar (4), har
EXTD=mony vocals\n\nTom Roady: congas, percussion\nJamie Oldaker: drum
EXTD=s\nKenny Malone: conga (2]\n\nProduced by Garth Fundis.\nOriginal
EXTD=ly released on Capitol Nashville (1986).\nCD: EMI-Capitol/Souther
EXTD=n Music Distribution SMD 1986-2 (2001), UPC 697035198620.
EXTT0=
EXTT1=
EXTT2=
EXTT3=
EXTT4=
EXTT5=
EXTT6=
EXTT7=
EXTT8=
EXTT9=
PLAYORDER=
